# xmcd
#
# Track frame offsets: 
#        150
#        13282
#        27815
#        45917
#        60980
#        74655
#        88572
#        101980
#        119172
#        131342
#        146610
#
# Disc length: 2178 seconds
#
# Revision: 2
# Processed by: cddbd v1.5.1PL0 Copyright (c) Steve Scherf et al.
# Submitted via: ExactAudioCopy v0.95a5
#
DISCID=96087f0b,9a08800b
DTITLE=Sawyer Brown - The Dirt Road
DYEAR=1992
DGENRE=Country
TTITLE0=The Dirt Road
TTITLE1=Some Girls Do
TTITLE2=Another Trip To The Well
TTITLE3=Time And Love
TTITLE4=Ruby Red Shoes
TTITLE5=Fire In The Rain
TTITLE6=Burnin' Bridges (On A Rocky Road)
TTITLE7=Sometimes A Hero
TTITLE8=Ain't That Always The Way
TTITLE9=When Twist Comes To Shout
TTITLE10=The Walk
EXTD=
EXTT0=
EXTT1=
EXTT2=
EXTT3=
EXTT4=
EXTT5=
EXTT6=
EXTT7=
EXTT8=
EXTT9=
EXTT10=
PLAYORDER=
